<?xml version="1.0" encoding="UTF-8"?>
<svg height="24px" viewBox="0 0 10 22" version="1.1" xmlns="http://www.w3.org/2000/svg" xmlns:xlink="http://www.w3.org/1999/xlink">
    <g id="Icons-/-Vertical-Ellipsis-" stroke="none" stroke-width="1" fill="none" fill-rule="evenodd">
        <path d="M5,6 C3.896,6 3,5.104 3,4 C3,2.896 3.896,2 5,2 C6.104,2 7,2.896 7,4 C7,5.104 6.104,6 5,6 Z" id="Fill-1" fill="#555555" transform="translate(5.000000, 4.000000) rotate(90.000000) translate(-5.000000, -4.000000) "></path>
        <path d="M7,11 C7,12.104 6.104,13 5,13 C3.896,13 3,12.104 3,11 C3,9.896 3.896,9 5,9 C6.104,9 7,9.896 7,11" id="Fill-3" fill="#555555" transform="translate(5.000000, 11.000000) rotate(90.000000) translate(-5.000000, -11.000000) "></path>
        <path d="M7,17 C7,18.104 6.104,19 5,19 C3.896,19 3,18.104 3,17 C3,15.896 3.896,15 5,15 C6.104,15 7,15.896 7,17" id="Fill-5" fill="#555555" transform="translate(5.000000, 17.000000) rotate(90.000000) translate(-5.000000, -17.000000) "></path>
    </g>
</svg>